<?xml version="1.0" standalone="no"?>
<!DOCTYPE svg PUBLIC "-//W3C//DTD SVG 20010904//EN"
 "http://www.w3.org/TR/2001/REC-SVG-20010904/DTD/svg10.dtd">
<svg version="1.0" xmlns="http://www.w3.org/2000/svg"
 width="400.000000pt" height="400.000000pt" viewBox="0 0 400.000000 400.000000"
 preserveAspectRatio="xMidYMid meet">
<metadata>
Created by potrace 1.11, written by Peter Selinger 2001-2013
</metadata>
<g transform="translate(0.000000,400.000000) scale(0.100000,-0.100000)"
fill="#000000" stroke="none">
<path d="M756 3298 c-3 -13 -10 -61 -16 -108 -5 -47 -12 -96 -15 -110 -22
-110 -80 -758 -110 -1240 -9 -135 -18 -263 -20 -285 -6 -50 -34 -602 -36 -708
-2 -69 1 -80 21 -102 l23 -25 299 0 c230 0 300 3 303 13 2 6 9 172 15 367 6
195 13 384 16 420 2 36 9 160 15 275 6 116 13 252 17 304 l7 94 144 -339 c80
-187 157 -367 173 -402 15 -34 28 -65 28 -69 0 -3 9 -24 20 -47 11 -23 44 -97
73 -166 l53 -125 236 -3 237 -2 7 22 c4 13 22 55 40 95 19 40 34 75 34 78 0 3
13 34 29 68 16 34 32 73 36 87 4 14 11 30 15 35 4 6 31 66 59 135 29 69 63
150 76 180 13 30 40 93 60 140 20 47 45 103 55 125 10 22 26 60 36 85 23 57
44 98 44 85 1 -23 20 -294 25 -345 7 -80 24 -526 30 -805 4 -132 8 -255 11
-272 l5 -33 298 0 297 0 27 28 27 28 -10 205 c-5 112 -12 242 -15 289 -3 47
-10 175 -15 285 -6 110 -13 218 -16 240 -2 22 -11 139 -19 260 -30 441 -82
980 -114 1160 l-17 100 -291 3 -291 2 -28 -47 c-45 -77 -185 -363 -278 -568
-48 -104 -93 -203 -101 -220 -19 -39 -75 -169 -166 -383 l-73 -173 -23 48
c-12 26 -62 143 -112 258 -90 212 -127 297 -161 370 -10 22 -33 72 -50 110
-102 221 -209 439 -267 543 l-35 62 -304 0 -304 0 -4 -22z"/>
</g>
</svg>
